<svg width="22" height="22" fill="none" xmlns="http://www.w3.org/2000/svg"><mask id="a" maskUnits="userSpaceOnUse" x="0" y=".458" width="21" height="20" fill="#000"><path fill="#fff" d="M0 .458h21v20H0z"/><path d="M19.825 9.638l-8.942-7.995a.248.248 0 00-.05-.04.529.529 0 00-.716-.011l-8.94 7.995a.529.529 0 00.703.79l1.61-1.442v9.324c0 .73.594 1.328 1.328 1.328H7.64c.688 0 1.246-.558 1.246-1.246V13.6c0-.106.086-.192.192-.192h2.849c.105 0 .191.086.191.192v4.74c0 .688.56 1.246 1.247 1.246h2.821c.743 0 1.329-.73 1.329-1.664V8.985l1.61 1.442a.529.529 0 00.746-.043.538.538 0 00-.046-.746zm-3.369 2.607v5.67c0 .379-.188.61-.274.61h-2.821a.192.192 0 01-.192-.192v-4.732c0-.688-.558-1.247-1.246-1.247H9.074c-.688 0-1.247.559-1.247 1.247v4.74a.192.192 0 01-.191.191H4.814a.274.274 0 01-.273-.273V7.989l5.932-5.3 5.983 5.35v4.206z"/></mask><path d="M19.825 9.638l-8.942-7.995a.248.248 0 00-.05-.04.529.529 0 00-.716-.011l-8.94 7.995a.529.529 0 00.703.79l1.61-1.442v9.324c0 .73.594 1.328 1.328 1.328H7.64c.688 0 1.246-.558 1.246-1.246V13.6c0-.106.086-.192.192-.192h2.849c.105 0 .191.086.191.192v4.74c0 .688.56 1.246 1.247 1.246h2.821c.743 0 1.329-.73 1.329-1.664V8.985l1.61 1.442a.529.529 0 00.746-.043.538.538 0 00-.046-.746zm-3.369 2.607v5.67c0 .379-.188.61-.274.61h-2.821a.192.192 0 01-.192-.192v-4.732c0-.688-.558-1.247-1.246-1.247H9.074c-.688 0-1.247.559-1.247 1.247v4.74a.192.192 0 01-.191.191H4.814a.274.274 0 01-.273-.273V7.989l5.932-5.3 5.983 5.35v4.206z" fill="#F05D2F"/><path d="M19.825 9.638l.201-.222-.001-.002-.2.224zm-8.942-7.995l-.212.212.006.006.006.005.2-.223zm-.05-.04l-.208.217.024.023.03.018.153-.258zm-.716-.011l-.199-.225v.001l.2.224zm-8.94 7.995l.199.224-.2-.224zm-.044.747l-.226.197.003.003.223-.2zm.747.043l.198.224h.002l-.2-.224zm1.61-1.442h.3v-.672l-.5.448.2.224zm14.025.05l.2-.223-.5-.448v.671h.3zm1.61 1.442l-.2.224.001.001.2-.225zm.747-.043l.223.201.004-.005-.227-.196zM4.54 7.99l-.2-.224-.1.09v.134h.3zm5.932-5.3l.2-.223-.2-.179-.2.18.2.223zm5.983 5.35h.3v-.133l-.1-.09-.2.224zm3.569 1.375L11.083 1.42l-.4.447 8.942 7.996.4-.448zm-8.93-7.984a.554.554 0 00-.108-.084l-.309.515c.002 0 .002 0 0-.001a.059.059 0 01-.007-.005l.425-.425zm-.055-.043a.829.829 0 00-1.122-.02l.398.45a.229.229 0 01.309.003l.415-.433zm-1.123-.019L.977 9.364l.4.447 8.94-7.996-.4-.447zM.977 9.363a.83.83 0 00-.07 1.168l.452-.395a.23.23 0 01.017-.325l-.4-.448zM.91 10.534a.829.829 0 00.618.275v-.6a.23.23 0 01-.172-.076l-.446.401zm.618.275a.827.827 0 00.55-.208l-.397-.45a.227.227 0 01-.153.059v.6zm.552-.209l1.61-1.442-.4-.447-1.61 1.442.4.447zm1.11-1.665v.281h.6v-.281h-.6zm0 .281v4.174h.6V9.216h-.6zm0 4.174v4.869h.6v-4.87h-.6zm0 4.869a1.63 1.63 0 001.628 1.628v-.6A1.03 1.03 0 013.79 18.26h-.6zm1.628 1.628h.032v-.6h-.03v.6zm.032 0h.03v-.6h-.03v.6zm.03 0h2.76v-.6H4.88v.6zm2.76 0c.853 0 1.546-.693 1.546-1.546h-.6a.947.947 0 01-.946.947v.6zm1.546-1.546V13.6h-.6v4.74h.6zm0-4.74c0 .06-.048.108-.108.108v-.6a.492.492 0 00-.492.492h.6zm-.108.108h2.849v-.6h-2.85v.6zm2.849 0a.108.108 0 01-.109-.108h.6a.492.492 0 00-.491-.492v.6zm-.109-.108v4.74h.6V13.6h-.6zm0 4.74c0 .853.693 1.546 1.547 1.546v-.6a.947.947 0 01-.947-.946h-.6zm1.547 1.546h2.821v-.6h-2.821v.6zm2.821 0c.968 0 1.629-.93 1.629-1.964h-.6c0 .834-.511 1.365-1.029 1.365v.6zm1.629-1.964v-4.346h-.6v4.346h.6zm0-4.346v-1.329h-.6v1.33h.6zm0-1.329V8.986h-.6v3.264h.6zm-.5-3.04l1.61 1.443.4-.447-1.61-1.442-.4.447zm1.611 1.444c.16.141.356.208.55.208v-.6a.227.227 0 01-.152-.057l-.398.45zm.55.208a.829.829 0 00.619-.275l-.447-.401a.23.23 0 01-.171.076v.6zm.623-.28a.838.838 0 00-.073-1.164l-.403.444a.238.238 0 01.02.33l.456.39zm-3.943 1.665v1.328h.6v-1.328h-.6zm0 1.328v4.342h.6v-4.342h-.6zm0 4.342c0 .14-.035.243-.067.303a.285.285 0 01-.022.033l-.007.009-.003.003.005-.004a.222.222 0 01.12-.034v.6c.139 0 .238-.08.284-.122a.78.78 0 00.148-.197c.083-.15.142-.352.142-.591h-.6zm.026.31h-2.821v.6h2.821v-.6zm-2.821 0c.06 0 .108.048.108.108h-.6c0 .271.22.492.492.492v-.6zm.108.108v-4.732h-.6v4.732h.6zm0-4.732c0-.854-.693-1.547-1.546-1.547v.6c.522 0 .947.425.947.947h.6zm-1.546-1.547H9.074v.6h2.849v-.6zm-2.849 0c-.853 0-1.547.693-1.547 1.547h.6c0-.523.425-.947.947-.947v-.6zm-1.547 1.547v4.74h.6V13.6h-.6zm0 4.74a.11.11 0 01.109-.109v.6c.271 0 .491-.22.491-.491h-.6zm.109-.109h-2.76v.6h2.76v-.6zm-2.76 0h-.03v.6h.031v-.6zm-.03 0h-.031v.6h.031v-.6zm-.032 0c.009 0 .015.004.019.008a.028.028 0 01.008.019h-.6c0 .32.262.573.573.573v-.6zm.027.027v-4.873h-.6v4.873h.6zm0-4.873V9.212h-.6v4.174h.6zm0-4.174V7.99h-.6v1.223h.6zm-.1-1l5.932-5.298-.4-.448-5.932 5.3.4.447zm5.532-5.299l5.983 5.35.4-.447-5.983-5.35-.4.447zm5.883 5.127v4.205h.6V8.04h-.6z" fill="#F05D2F" mask="url(#a)"/></svg>