<svg width="24" height="26" fill="none" xmlns="http://www.w3.org/2000/svg"><path d="M20.536 17.704c-1.426-1.24-2.873-1.99-4.282-.753l-.84.749c-.616.543-1.76 3.081-6.184-2.093-4.422-5.167-1.79-5.971-1.174-6.51l.845-.75c1.402-1.24.873-2.802-.138-4.41l-.61-.975C7.138 1.358 6.033.304 4.628 1.543l-.76.675c-.62.46-2.355 1.954-2.776 4.794-.507 3.407 1.091 7.31 4.753 11.59 3.657 4.284 7.238 6.435 10.63 6.398 2.818-.031 4.52-1.57 5.053-2.128l.762-.676c1.401-1.238.53-2.499-.896-3.741l-.858-.75z" stroke="#A0A3B1" stroke-width="1.6"/></svg>