<svg width="154" height="46" fill="none" xmlns="http://www.w3.org/2000/svg"><path d="M74.176 10.078h-4.872V27.15c0 .832-.416 1.249-1.249 1.249h-4.788c-3.33 0-4.622-1.75-4.622-5.08v-13.24h-4.871v14.53c0 5.83 3.58 7.537 8.577 7.537h8.077c2.499 0 3.748-1.25 3.748-3.747v-18.32zm7.579 0c-2.498 0-3.748 1.25-3.748 3.748V43h4.872V32.146h6.578c7.079 0 9.035-4.414 9.035-11.076 0-6.662-1.957-10.992-9.035-10.992h-7.702zm1.124 4.83c0-.708.458-1.082 1.249-1.082h4.122c4.705 0 5.204 3.08 5.204 7.244s-.5 7.329-5.204 7.329h-5.371v-13.49zm21.333-4.83h-5.038l8.41 20.36c.833 1.958 2.165 1.958 3.414 1.958s2.582 0 3.373-1.957l8.41-20.36h-5.038l-6.162 16.363c-.125.333-.333.874-.583.874-.25 0-.458-.541-.583-.874l-6.203-16.364zm39.806 22.068v-3.747h-10.783c-4.164 0-4.747-2.332-4.747-5.663h12.824c2.498 0 3.414-1.666 3.414-4.164 0-7.078-4.372-8.744-10.617-8.744-7.495 0-10.659 2.499-10.659 11.242 0 7.079 1.249 11.076 8.327 11.076h12.241zm-15.53-13.157c0-3.748 1.457-5.413 5.621-5.413 2.914 0 5.579 1.207 5.579 4.122 0 .624-.125 1.29-1.082 1.29h-10.118zm19.414 13.157h4.872V1h-4.872v31.146z" fill="#363636"/><path d="M97.718 43v-.84H94.71c-.32 0-.4-.08-.4-.4V37.4h-1.056v4.76c0 .64.336.84.816.84h3.648zm7.929-.84h-3.032c-.32 0-.4-.08-.4-.4v-1.2h3.32v-.84h-3.32v-1.08c0-.32.08-.4.4-.4h3v-.84h-3.64c-.48 0-.816.2-.816.84v3.92c0 .64.336.84.816.84h3.672v-.84zm4.375-4.76h-1.144l2.032 5.056c.12.304.344.608.904.608s.784-.304.904-.608l2.032-5.056h-1.144l-1.672 4.52c-.024.04-.048.12-.12.12s-.096-.08-.12-.12l-1.672-4.52zm12.53 4.76h-3.032c-.32 0-.4-.08-.4-.4v-1.2h3.32v-.84h-3.32v-1.08c0-.32.08-.4.4-.4h3v-.84h-3.64c-.48 0-.816.2-.816.84v3.92c0 .64.336.84.816.84h3.672v-.84zm8.147.84v-.84h-3.008c-.32 0-.4-.08-.4-.4V37.4h-1.056v4.76c0 .64.336.84.816.84h3.648zm10.7-.776c-.96 0-1.376-.376-1.376-1.256V37.4h-1.056v3.568c0 1.6.912 2.096 2.432 2.096s2.432-.496 2.432-2.096V37.4h-1.056v3.568c0 .88-.416 1.256-1.376 1.256zm6.348.776h1.056v-1.984h2.544c1.2 0 1.424-.856 1.424-1.816 0-.96-.224-1.8-1.424-1.8h-2.784c-.48 0-.816.2-.816.84V43zm1.056-2.824V38.64c0-.32.08-.4.4-.4h1.624c.72 0 .856.32.856.96 0 .64-.136.976-.856.976h-2.024z" fill="#FF5E37"/><path d="M97.718 43v.1h.1V43h-.1zm0-.84h.1v-.1h-.1v.1zM94.31 37.4h.1v-.1h-.1v.1zm-1.056 0v-.1h-.1v.1h.1zm4.564 5.6v-.84h-.2V43h.2zm-.1-.94H94.71v.2h3.008v-.2zm-3.008 0c-.16 0-.221-.023-.25-.05-.028-.029-.05-.09-.05-.25h-.2c0 .16.017.299.11.39.091.093.23.11.39.11v-.2zm-.3-.3V37.4h-.2v4.36h.2zm-.1-4.46h-1.056v.2h1.056v-.2zm-1.156.1v4.76h.2V37.4h-.2zm0 4.76c0 .337.089.579.26.734.171.154.405.206.656.206v-.2c-.229 0-.403-.048-.521-.154-.116-.105-.195-.283-.195-.586h-.2zm.916.94h3.648v-.2H94.07v.2zm11.577-.94h.1v-.1h-.1v.1zm-3.432-1.6v-.1h-.1v.1h.1zm3.32 0v.1h.1v-.1h-.1zm0-.84h.1v-.1h-.1v.1zm-3.32 0h-.1v.1h.1v-.1zm3.4-1.48v.1h.1v-.1h-.1zm0-.84h.1v-.1h-.1v.1zm.032 5.6v.1h.1V43h-.1zm0-.94h-3.032v.2h3.032v-.2zm-3.032 0c-.16 0-.221-.023-.249-.05-.028-.029-.051-.09-.051-.25h-.2c0 .16.018.299.11.39.091.093.231.11.39.11v-.2zm-.3-.3v-1.2h-.2v1.2h.2zm-.1-1.1h3.32v-.2h-3.32v.2zm3.42-.1v-.84h-.2v.84h.2zm-.1-.94h-3.32v.2h3.32v-.2zm-3.22.1v-1.08h-.2v1.08h.2zm0-1.08c0-.16.023-.221.051-.25.028-.028.089-.05.249-.05v-.2c-.159 0-.299.017-.39.11-.092.091-.11.23-.11.39h.2zm.3-.3h3v-.2h-3v.2zm3.1-.1v-.84h-.2v.84h.2zm-.1-.94h-3.64v.2h3.64v-.2zm-3.64 0c-.251 0-.484.052-.655.206-.172.155-.261.397-.261.734h.2c0-.303.08-.481.195-.586.118-.106.293-.154.521-.154v-.2zm-.916.94v3.92h.2v-3.92h-.2zm0 3.92c0 .337.089.579.261.734.171.154.404.206.655.206v-.2c-.228 0-.403-.048-.521-.154-.115-.105-.195-.283-.195-.586h-.2zm.916.94h3.672v-.2h-3.672v.2zm3.772-.1v-.84h-.2V43h.2zm4.275-5.6l.094-.035-.024-.065h-.07v.1zm-1.144 0v-.1h-.148l.056.137.092-.037zm2.032 5.056l.093-.037-.093.037zm1.808 0l-.092-.037h-.001l.093.037zm2.032-5.056l.093.037.055-.137h-.148v.1zm-1.144 0v-.1h-.069l-.024.065.093.035zm-1.672 4.52l.086.051.005-.008.003-.008-.094-.035zm-.24 0l-.093.035.003.008.005.008.085-.051zm-1.672-4.62h-1.144v.2h1.144v-.2zm-1.236.137l2.032 5.056.185-.074-2.032-5.056-.185.074zm2.031 5.056c.064.16.158.33.318.459.161.13.38.212.679.212v-.2c-.26 0-.433-.07-.554-.168a.894.894 0 01-.257-.377l-.186.074zm.997.671c.3 0 .519-.082.68-.212.16-.13.254-.299.317-.46l-.186-.073a.883.883 0 01-.256.377c-.121.098-.294.168-.555.168v.2zm.997-.67l2.032-5.057-.185-.074-2.032 5.056.185.074zm1.939-5.194h-1.144v.2h1.144v-.2zm-1.237.065l-1.672 4.52.187.07 1.672-4.52-.187-.07zm-1.664 4.504c-.009.013-.017.032-.022.04a.15.15 0 01-.016.028l-.005.006a.024.024 0 01.008-.003v.2a.195.195 0 00.16-.087c.013-.018.023-.037.031-.052l.015-.03-.171-.102zm-.035.071c.002 0 .006 0 .008.003.002 0 0 0-.004-.006a.15.15 0 01-.016-.027l-.022-.041-.171.102.015.03c.008.015.018.034.031.052a.193.193 0 00.159.087v-.2zm-.026-.055l-1.672-4.52-.187.07 1.672 4.52.187-.07zm10.764.275h.1v-.1h-.1v.1zm-3.432-1.6v-.1h-.1v.1h.1zm3.32 0v.1h.1v-.1h-.1zm0-.84h.1v-.1h-.1v.1zm-3.32 0h-.1v.1h.1v-.1zm3.4-1.48v.1h.1v-.1h-.1zm0-.84h.1v-.1h-.1v.1zm.032 5.6v.1h.1V43h-.1zm0-.94h-3.032v.2h3.032v-.2zm-3.032 0c-.161 0-.221-.023-.25-.05-.028-.029-.05-.09-.05-.25h-.2c0 .16.017.299.109.39.092.093.231.11.391.11v-.2zm-.3-.3v-1.2h-.2v1.2h.2zm-.1-1.1h3.32v-.2h-3.32v.2zm3.42-.1v-.84h-.2v.84h.2zm-.1-.94h-3.32v.2h3.32v-.2zm-3.22.1v-1.08h-.2v1.08h.2zm0-1.08c0-.16.022-.221.05-.25.029-.028.089-.05.25-.05v-.2c-.16 0-.299.017-.391.11-.092.091-.109.23-.109.39h.2zm.3-.3h3v-.2h-3v.2zm3.1-.1v-.84h-.2v.84h.2zm-.1-.94h-3.64v.2h3.64v-.2zm-3.64 0c-.252 0-.485.052-.655.206-.173.155-.261.397-.261.734h.2c0-.303.079-.481.195-.586.117-.106.292-.154.521-.154v-.2zm-.916.94v3.92h.2v-3.92h-.2zm0 3.92c0 .337.088.579.261.734.17.154.403.206.655.206v-.2c-.229 0-.404-.048-.521-.154-.116-.105-.195-.283-.195-.586h-.2zm.916.94h3.672v-.2h-3.672v.2zm3.772-.1v-.84h-.2V43h.2zm8.047 0v.1h.1V43h-.1zm0-.84h.1v-.1h-.1v.1zm-3.408-4.76h.1v-.1h-.1v.1zm-1.056 0v-.1h-.1v.1h.1zm4.564 5.6v-.84h-.2V43h.2zm-.1-.94h-3.008v.2h3.008v-.2zm-3.008 0c-.161 0-.222-.023-.25-.05-.028-.029-.05-.09-.05-.25h-.2c0 .16.017.299.109.39.092.093.231.11.391.11v-.2zm-.3-.3V37.4h-.2v4.36h.2zm-.1-4.46h-1.056v.2h1.056v-.2zm-1.156.1v4.76h.2V37.4h-.2zm0 4.76c0 .337.088.579.261.734.17.154.403.206.655.206v-.2c-.229 0-.404-.048-.521-.154-.116-.105-.195-.283-.195-.586h-.2zm.916.94h3.648v-.2h-3.648v.2zm12.972-5.7h.1v-.1h-.1v.1zm-1.056 0v-.1h-.1v.1h.1zm4.864 0h.1v-.1h-.1v.1zm-1.056 0v-.1h-.1v.1h.1zm-1.376 4.724c-.47 0-.784-.093-.981-.272-.194-.177-.295-.458-.295-.884h-.2c0 .454.107.801.361 1.032.251.229.625.324 1.115.324v-.2zm-1.276-1.156V37.4h-.2v3.568h.2zm-.1-3.668h-1.056v.2h1.056v-.2zm-1.156.1v3.568h.2V37.4h-.2zm0 3.568c0 .82.234 1.378.685 1.727.444.345 1.08.469 1.847.469v-.2c-.753 0-1.333-.124-1.725-.427-.385-.299-.607-.788-.607-1.569h-.2zm2.532 2.196c.767 0 1.403-.124 1.847-.469.451-.35.685-.908.685-1.727h-.2c0 .78-.222 1.27-.607 1.569-.392.303-.972.427-1.725.427v.2zm2.532-2.196V37.4h-.2v3.568h.2zm-.1-3.668h-1.056v.2h1.056v-.2zm-1.156.1v3.568h.2V37.4h-.2zm0 3.568c0 .426-.101.707-.295.884-.197.18-.511.272-.981.272v.2c.49 0 .864-.095 1.115-.324.254-.23.361-.578.361-1.032h-.2zM147.747 43h-.1v.1h.1V43zm1.056 0v.1h.1V43h-.1zm0-1.984v-.1h-.1v.1h.1zm0-.84h-.1v.1h.1v-.1zm-1.056 2.924h1.056v-.2h-1.056v.2zm1.156-.1v-1.984h-.2V43h.2zm-.1-1.884h2.544v-.2h-2.544v.2zm2.544 0c.628 0 1.02-.227 1.247-.596.222-.359.277-.837.277-1.32h-.2c0 .477-.056.906-.247 1.215-.184.3-.504.501-1.077.501v.2zm1.524-1.916c0-.483-.055-.958-.277-1.313-.228-.365-.62-.587-1.247-.587v.2c.573 0 .893.198 1.078.493.19.305.246.73.246 1.207h.2zm-1.524-1.9h-2.784v.2h2.784v-.2zm-2.784 0c-.251 0-.484.052-.655.206-.172.155-.261.397-.261.734h.2c0-.303.08-.481.195-.586.118-.106.293-.154.521-.154v-.2zm-.916.94V43h.2v-4.76h-.2zm1.256 1.936V38.64h-.2v1.536h.2zm0-1.536c0-.16.023-.221.051-.25.028-.028.089-.05.249-.05v-.2c-.159 0-.299.017-.39.11-.092.091-.11.23-.11.39h.2zm.3-.3h1.624v-.2h-1.624v.2zm1.624 0c.349 0 .524.078.619.201.102.13.137.339.137.659h.2c0-.32-.032-.592-.179-.781-.152-.197-.405-.279-.777-.279v.2zm.756.86c0 .32-.035.533-.137.668-.097.127-.271.208-.619.208v.2c.373 0 .626-.087.778-.288.146-.193.178-.468.178-.788h-.2zm-.756.876h-2.024v.2h2.024v-.2zM13.435 9.192l13.14 13.14-4.95 4.95-13.14-13.14zM4.95 17.678l21.92 21.92-4.95 4.95L0 22.628z" fill="#FF5E37"/><path fill="#FF5E37" d="M44.548 21.92l-21.92 21.921-4.95-4.95 21.92-21.92zM22.627 0l13.14 13.14-4.95 4.949-13.14-13.14z"/><path d="M35.758 13.13l-13.04 13.04-5.352-5.352 13.04-13.04 5.352 5.352z" fill="#FF5E37"/></svg>