<svg width="33" height="27" fill="none" xmlns="http://www.w3.org/2000/svg"><path d="M19.037 23.32v-1.888a3.763 3.763 0 00-1.115-2.672 3.823 3.823 0 00-2.692-1.106H7.614c-1.01 0-1.978.398-2.692 1.106a3.763 3.763 0 00-1.115 2.672v1.889m7.615-9.445c2.103 0 3.808-1.691 3.808-3.778 0-2.086-1.705-3.778-3.808-3.778-2.103 0-3.808 1.692-3.808 3.778 0 2.087 1.705 3.778 3.808 3.778zm16.628 4.957v-1.888a3.697 3.697 0 00-1.157-2.672 4.041 4.041 0 00-2.792-1.106h-1.47m-6.164-8.915c.57-1.415 2.005-2.419 3.685-2.419 2.181 0 3.949 1.692 3.949 3.778 0 1.448-.852 2.706-2.102 3.34" stroke="#FF5E37" stroke-width="1.8" stroke-linecap="round" stroke-linejoin="round"/></svg>