<svg width="22" height="22" fill="none" xmlns="http://www.w3.org/2000/svg"><g clip-path="url(#clip0)" fill="#CED3EA"><path d="M20.873 1.29h-6.86c-.622 0-1.127.506-1.127 1.128v6.86c0 .622.505 1.128 1.128 1.128h3.283c-.043 1.796-.46 3.233-1.25 4.314-.623.853-1.566 1.56-2.828 2.116-.58.255-.83.941-.56 1.514l.813 1.715c.262.55.91.792 1.469.55 1.494-.645 2.755-1.461 3.784-2.454 1.254-1.212 2.114-2.58 2.579-4.104.465-1.526.697-3.606.697-6.246V2.418c0-.622-.505-1.128-1.128-1.128zM2.393 20.611c1.475-.643 2.73-1.46 3.765-2.45 1.266-1.212 2.13-2.575 2.595-4.089.465-1.514.697-3.6.697-6.26V2.417c0-.622-.505-1.128-1.128-1.128h-6.86A1.129 1.129 0 00.336 2.418v6.86c0 .622.505 1.128 1.128 1.128h3.283c-.043 1.796-.46 3.233-1.25 4.314-.623.853-1.566 1.56-2.827 2.116-.58.255-.83.941-.56 1.514l.81 1.71c.262.551.914.795 1.474.551z"/></g><defs><clipPath id="clip0"><path fill="#fff" d="M0 0h22v22H0z"/></clipPath></defs></svg>