<svg width="148" height="33" fill="none" xmlns="http://www.w3.org/2000/svg"><path d="M43.234 14.808V19h-1.968V7.8c.555 0 1.158-.005 1.808-.016.651-.01 1.184-.016 1.6-.016 2.71 0 4.064 1.152 4.064 3.456 0 .853-.218 1.557-.656 2.112-.437.533-.938.896-1.504 1.088L50.082 19h-2.384l-3.088-4.192h-1.376zm1.344-5.2c-.053 0-.138.005-.256.016-.117 0-.282.005-.496.016h-.592v3.328h1.28c.63 0 1.142-.155 1.536-.464.406-.31.608-.73.608-1.264 0-1.088-.693-1.632-2.08-1.632zm11.683 7.376l.528 1.296c-.714.597-1.632.896-2.752.896-1.152 0-2.09-.347-2.816-1.04-.704-.683-1.056-1.595-1.056-2.736 0-1.067.347-1.963 1.04-2.688.694-.725 1.616-1.088 2.768-1.088.95 0 1.755.315 2.416.944.662.63.992 1.43.992 2.4 0 .427-.037.757-.112.992h-5.2c.075.523.304.933.688 1.232.395.299.886.448 1.472.448.8 0 1.478-.219 2.032-.656zm-2.368-3.824c-1.045 0-1.674.523-1.888 1.568h3.536c.011-.459-.138-.832-.448-1.12-.298-.299-.698-.448-1.2-.448zm11.835 9.04h-1.84v-3.568a3.188 3.188 0 01-1.776.544c-1.14 0-2.053-.341-2.736-1.024-.671-.693-1.008-1.61-1.008-2.752 0-1.077.39-1.973 1.168-2.688.79-.725 1.776-1.088 2.96-1.088 1.238 0 2.315.288 3.232.864V22.2zm-3.375-4.736c.618 0 1.13-.219 1.535-.656v-3.104c-.48-.235-.949-.352-1.407-.352-.662 0-1.184.203-1.569.608-.383.395-.575.901-.575 1.52 0 .576.18 1.05.543 1.424.374.373.864.56 1.472.56zM72.425 11.8h1.84V19h-1.84v-.88c-.576.704-1.344 1.056-2.304 1.056-.768 0-1.381-.256-1.84-.768-.459-.512-.688-1.248-.688-2.208v-4.4h1.84v4.016c0 1.099.459 1.648 1.376 1.648.63 0 1.168-.293 1.616-.88V11.8zm9.538 5.184l.529 1.296c-.715.597-1.632.896-2.752.896-1.153 0-2.091-.347-2.817-1.04-.704-.683-1.056-1.595-1.056-2.736 0-1.067.347-1.963 1.04-2.688.694-.725 1.617-1.088 2.769-1.088.949 0 1.754.315 2.415.944.662.63.993 1.43.993 2.4 0 .427-.038.757-.112.992h-5.2c.074.523.303.933.688 1.232.394.299.885.448 1.472.448.8 0 1.477-.219 2.031-.656zm-2.367-3.824c-1.046 0-1.675.523-1.888 1.568h3.535c.011-.459-.138-.832-.448-1.12-.298-.299-.698-.448-1.2-.448zm4.73.656c0-.672.245-1.205.736-1.6.49-.395 1.125-.592 1.903-.592 1.174 0 2.086.304 2.737.912l-.689 1.312a3.094 3.094 0 00-1.951-.688c-.257 0-.47.064-.64.192-.171.117-.257.261-.257.432 0 .352.454.645 1.36.88.331.075.624.16.88.256.256.085.518.213.784.384.278.16.491.373.64.64.15.267.225.576.225.928 0 .704-.267 1.264-.8 1.68-.523.416-1.227.624-2.112.624-.63 0-1.243-.133-1.84-.4-.608-.277-.998-.555-1.168-.832l.895-1.2c.203.245.54.453 1.008.624.48.181.891.272 1.233.272.415.043.709-.09.88-.4.17-.32.058-.581-.337-.784a4.045 4.045 0 00-.751-.272 24.67 24.67 0 01-.928-.288 7.656 7.656 0 01-.865-.4 1.847 1.847 0 01-.688-.656c-.17-.288-.255-.63-.255-1.024zm7.189 2.448V9.8h1.84v2h2.32v1.728h-2.32v2.624c0 .864.288 1.296.864 1.296.362 0 .73-.139 1.104-.416l.56 1.424c-.587.47-1.296.704-2.128.704-.779 0-1.35-.235-1.712-.704-.352-.48-.528-1.21-.528-2.192zM101.93 19h-.144V7.8h.176c.459 0 .886-.005 1.28-.016.79-.021 1.259-.032 1.408-.032 1.078 0 2.027.15 2.848.448.832.288 1.494.693 1.984 1.216a4.887 4.887 0 011.088 1.744c.246.64.368 1.333.368 2.08 0 1.685-.56 3.072-1.68 4.16-1.109 1.088-2.688 1.632-4.736 1.632-.458 0-.88-.005-1.264-.016-.384-.01-.826-.016-1.328-.016zm2.688-10.416c-.234 0-.581.01-1.04.032-.448.01-.752.016-.912.016v9.536c.352 0 .683.005.992.016.31 0 .534.005.672.016h.224c1.739 0 3.083-.459 4.032-1.376.95-.928 1.424-2.123 1.424-3.584 0-1.376-.453-2.496-1.36-3.36-.917-.864-2.261-1.296-4.032-1.296zm14.071 8.896l.272.64c-.651.683-1.536 1.024-2.656 1.024-1.152 0-2.075-.341-2.768-1.024-.704-.683-1.056-1.59-1.056-2.72 0-1.088.32-1.984.96-2.688.651-.704 1.547-1.056 2.688-1.056.928 0 1.707.299 2.336.896.619.587.928 1.37.928 2.352 0 .256-.016.48-.048.672h-5.936c.032.864.315 1.547.848 2.048.533.49 1.232.736 2.096.736 1.003 0 1.781-.293 2.336-.88zm-2.64-5.04c-.768 0-1.392.224-1.872.672-.469.448-.741 1.04-.816 1.776h5.184c-.011-.757-.24-1.355-.688-1.792-.448-.437-1.051-.656-1.808-.656zm9.063 4.672a.946.946 0 00-.416-.8 3.079 3.079 0 00-.992-.48 29.286 29.286 0 01-1.168-.384 2.536 2.536 0 01-1.008-.688c-.267-.32-.4-.72-.4-1.2 0-.576.213-1.035.64-1.376.426-.352.986-.528 1.68-.528.992 0 1.744.267 2.256.8l-.352.624c-.491-.459-1.12-.688-1.888-.688-.427 0-.779.112-1.056.336a1 1 0 00-.4.816c0 .341.133.624.4.848.277.213.608.384.992.512.394.117.789.245 1.184.384.394.139.725.357.992.656.277.299.416.677.416 1.136 0 .65-.246 1.157-.736 1.52-.48.363-1.099.544-1.856.544-.47 0-.96-.107-1.472-.32-.48-.203-.811-.443-.992-.72l.464-.544c.202.245.506.448.912.608.416.16.81.24 1.184.24.469 0 .853-.112 1.152-.336.309-.235.464-.555.464-.96zM129.304 19h-.832v-7.2h.832V19zm-.976-10c0-.16.059-.288.176-.384a.636.636 0 01.416-.144c.139 0 .261.053.368.16a.456.456 0 01.176.368.582.582 0 01-.16.432.491.491 0 01-.384.16.618.618 0 01-.432-.16.582.582 0 01-.16-.432zm2.876 11.056c0-.544.192-1.003.576-1.376.384-.373.928-.635 1.632-.784a1.04 1.04 0 01-.24-.688c0-.267.091-.507.272-.72a2.453 2.453 0 01-1.104-.912 2.445 2.445 0 01-.4-1.376c0-.736.261-1.344.784-1.824s1.211-.72 2.064-.72c.683 0 1.285.181 1.808.544h.016l2.048-.544v.784l-1.456.368c.288.437.432.901.432 1.392 0 .715-.267 1.323-.8 1.824-.533.48-1.216.72-2.048.72-.299 0-.539-.021-.72-.064a.907.907 0 00-.144.528c0 .245.069.437.208.576.405-.021.629-.032.672-.032 1.099 0 1.973.203 2.624.608.651.405.976.97.976 1.696 0 .715-.325 1.27-.976 1.664-.651.405-1.525.608-2.624.608-1.109 0-1.989-.197-2.64-.592-.64-.395-.96-.955-.96-1.68zm.848 0c0 .47.245.837.736 1.104.501.277 1.173.416 2.016.416.832 0 1.499-.139 2-.416.501-.277.752-.645.752-1.104 0-.47-.251-.843-.752-1.12-.491-.288-1.157-.432-2-.432-.832 0-1.499.139-2 .416-.501.277-.752.656-.752 1.136zm1.296-7.136c-.373.341-.56.768-.56 1.28s.187.939.56 1.28c.373.341.853.512 1.44.512s1.067-.17 1.44-.512c.373-.341.56-.768.56-1.28s-.192-.939-.576-1.28c-.373-.341-.848-.512-1.424-.512-.565 0-1.045.17-1.44.512zM140.92 19h-.832v-7.2h.832v1.008a3.44 3.44 0 011.152-.816c.48-.213.96-.32 1.44-.32 1.002 0 1.754.261 2.256.784.501.523.752 1.333.752 2.432V19h-.832v-3.952c0-1.728-.79-2.592-2.368-2.592-.459 0-.907.107-1.344.32-.438.203-.79.464-1.056.784V19z" fill="#242424"/><rect x=".5" y="16.5" width="23.334" height="23.334" rx="2.121" transform="rotate(-45 .5 16.5)" fill="#1F1F1F"/><rect x="3.423" y="16.5" width="19.2" height="19.2" rx="9.6" transform="rotate(-45 3.423 16.5)" fill="#EEF0FA"/><rect x="11.106" y="10.607" width="11.879" height="11.879" rx="1.273" fill="#1F1F1F"/><rect x="10.636" y="16.5" width="9" height="9" rx="4.5" transform="rotate(-45 10.636 16.5)" fill="#EEF0FA"/><rect x="14.501" y="16.546" width="3.6" height="3.6" rx=".849" transform="rotate(-45 14.5 16.546)" fill="#1F1F1F"/></svg>