<svg width="21" height="23" fill="none" xmlns="http://www.w3.org/2000/svg"><path d="M17.872 15.43c-1.232-1.034-2.481-1.66-3.698-.628l-.726.624c-.532.453-1.52 2.568-5.34-1.744-3.82-4.306-1.547-4.976-1.014-5.425l.73-.624c1.21-1.034.753-2.336-.12-3.676l-.526-.812C6.3 1.808 5.346.93 4.133 1.962l-.655.562A6.026 6.026 0 001.079 6.52c-.438 2.84.943 6.09 4.105 9.658 3.159 3.57 6.251 5.362 9.18 5.331 2.435-.026 3.905-1.307 4.365-1.773l.658-.563c1.21-1.032.458-2.082-.774-3.118l-.741-.625z" stroke="#FF5E37" stroke-width="1.6"/></svg>