<svg width="28" height="29" fill="none" xmlns="http://www.w3.org/2000/svg"><path fill-rule="evenodd" clip-rule="evenodd" d="M25.57 28.083a1.423 1.423 0 002.013-2.012l-11.57-11.57 11.57-11.572A1.423 1.423 0 1025.572.917l-11.57 11.57L2.428.918A1.423 1.423 0 00.417 2.929L11.987 14.5.418 26.071a1.423 1.423 0 002.012 2.012L14 16.513l11.57 11.57z" fill="#BFABAD"/><path fill-rule="evenodd" clip-rule="evenodd" d="M25.57 28.083a1.423 1.423 0 002.013-2.012l-11.57-11.57 11.57-11.572A1.423 1.423 0 1025.572.917l-11.57 11.57L2.428.918A1.423 1.423 0 00.417 2.929L11.987 14.5.418 26.071a1.423 1.423 0 002.012 2.012L14 16.513l11.57 11.57z" fill="#373737"/></svg>