<svg width="17" height="17" fill="none" xmlns="http://www.w3.org/2000/svg"><path fill-rule="evenodd" clip-rule="evenodd" d="M1.475 16.747a.864.864 0 01-1.222-1.222L7.278 8.5.253 1.475A.864.864 0 111.475.253L8.5 7.278 15.525.253a.864.864 0 011.222 1.222L9.722 8.5l7.025 7.025a.864.864 0 11-1.222 1.222L8.5 9.722l-7.025 7.025z" fill="#BFABAD"/><path fill-rule="evenodd" clip-rule="evenodd" d="M1.475 16.747a.864.864 0 01-1.222-1.222L7.278 8.5.253 1.475A.864.864 0 111.475.253L8.5 7.278 15.525.253a.864.864 0 011.222 1.222L9.722 8.5l7.025 7.025a.864.864 0 11-1.222 1.222L8.5 9.722l-7.025 7.025z" fill="#BFABAD"/></svg>