<svg width="24" height="25" fill="none" xmlns="http://www.w3.org/2000/svg"><path d="M22.54 6.93a2.78 2.78 0 00-1.94-2c-1.72-.42-8.6-.42-8.6-.42s-6.88 0-8.6.46a2.78 2.78 0 00-1.94 2A29 29 0 001 12.26a29 29 0 00.46 5.33 2.78 2.78 0 001.94 1.92c1.72.46 8.6.46 8.6.46s6.88 0 8.6-.46a2.78 2.78 0 001.94-2c.312-1.733.466-3.49.46-5.25a29.004 29.004 0 00-.46-5.33v0z" stroke="#FF5E37" stroke-width="1.6" stroke-linecap="round" stroke-linejoin="round"/><path d="M9.75 15.53l5.75-3.27-5.75-3.27v6.54z" stroke="#FF5E37" stroke-width="1.6" stroke-linecap="round" stroke-linejoin="round"/></svg>